# xmcd
#
# Track frame offsets:
#	150
#	19275
#	39900
#
# Disc length: 718 seconds
#
# Revision: 0
# Processed by: cddbd v1.5.2PL0 Copyright (c) Steve Scherf et al.
# Submitted via: audiograbber 1.83.01
#
DISCID=1a02cc03
DTITLE=Tom Mega - Mein Wille
DYEAR=1992
DGENRE=
TTITLE0=Mein Wille
TTITLE1=Gina
TTITLE2=Jesus und ich
EXTD=
EXTT0=
EXTT1=
EXTT2=
PLAYORDER=
